<svg width="24" height="24" viewBox="0 0 24 24" fill="none" xmlns="http://www.w3.org/2000/svg">
<path d="M12 1.77777C9.22123 1.77777 6.96875 4.03025 6.96875 6.80902C6.96875 9.05551 10.257 13.15 11.5168 14.6362C11.772 14.9373 12.2284 14.9373 12.4832 14.6362C13.743 13.15 17.0312 9.05551 17.0312 6.80902C17.0312 4.03025 14.7788 1.77777 12 1.77777ZM12 8.4861C11.0736 8.4861 10.3229 7.73541 10.3229 6.80902C10.3229 5.88263 11.0736 5.13194 12 5.13194C12.9264 5.13194 13.6771 5.88263 13.6771 6.80902C13.6771 7.73541 12.9264 8.4861 12 8.4861ZM1.3034 10.4008C1.06629 10.4956 0.863021 10.6593 0.719822 10.8708C0.576622 11.0822 0.500057 11.3317 0.5 11.5871L0.5 21.5825C0.5 22.0345 0.956406 22.3436 1.37608 22.1759L6.88889 19.6667V10.3596C6.5359 9.72156 6.2472 9.10024 6.04036 8.50607L1.3034 10.4008ZM12 16.1396C11.4382 16.1396 10.9067 15.8928 10.5421 15.4624C9.7571 14.536 8.92215 13.481 8.16667 12.3989V19.6663L15.8333 22.2218V12.3993C15.0778 13.481 14.2433 14.5364 13.4579 15.4628C13.0933 15.8928 12.5618 16.1396 12 16.1396ZM22.6239 8.21298L17.1111 10.7222V22.2222L22.6966 19.9881C22.9337 19.8933 23.137 19.7296 23.2802 19.5181C23.4235 19.3067 23.5 19.0572 23.5 18.8018V8.80635C23.5 8.35433 23.0436 8.04527 22.6239 8.21298Z" fill="#F5F5F5"/>
</svg>
