<svg width="24" height="24" viewBox="0 0 24 24" fill="none" xmlns="http://www.w3.org/2000/svg">
<path fill-rule="evenodd" clip-rule="evenodd" d="M12 19.9444C12 19.9444 18.5 15.6111 18.5 10.5555C18.5 8.83164 17.8152 7.17834 16.5962 5.95935C15.3772 4.74036 13.7239 4.05554 12 4.05554C10.2761 4.05554 8.62279 4.74036 7.40381 5.95935C6.18482 7.17834 5.5 8.83164 5.5 10.5555C5.5 15.6111 12 19.9444 12 19.9444ZM14.1674 10.5557C14.1674 11.7523 13.1973 12.7224 12.0007 12.7224C10.8041 12.7224 9.83405 11.7523 9.83405 10.5557C9.83405 9.35908 10.8041 8.38903 12.0007 8.38903C13.1973 8.38903 14.1674 9.35908 14.1674 10.5557Z" fill="#1CC8EE"/>
</svg>
