<svg width="24" height="26" viewBox="0 0 24 26" fill="none" xmlns="http://www.w3.org/2000/svg">
<path d="M4.34539 6.87322C4.34539 6.40461 4.69362 6.01733 5.14543 5.95604L5.27103 5.94759L19.8345 5.94772L16.3695 2.49667C16.0072 2.13602 16.0058 1.54994 16.3665 1.18762C16.6944 0.858238 17.2085 0.827174 17.5715 1.09521L17.6755 1.18459L22.7316 6.21732C22.7614 6.24766 22.7884 6.27854 22.8134 6.31112L22.7316 6.21732C22.7772 6.26273 22.8171 6.31171 22.8513 6.36336C22.8625 6.38138 22.874 6.40011 22.8848 6.41926C22.8955 6.43704 22.9049 6.45512 22.9136 6.47343C22.9216 6.4915 22.9297 6.50984 22.9372 6.52847C22.9473 6.55215 22.9559 6.57643 22.9634 6.60097C22.9673 6.61544 22.9714 6.63025 22.9752 6.64521C22.9826 6.67187 22.9881 6.69866 22.9924 6.7256C22.9939 6.73821 22.9957 6.75144 22.9972 6.76475C23.0014 6.79516 23.0035 6.8253 23.004 6.85547C23.0035 6.86143 23.0035 6.86732 23.0035 6.87322L23.004 6.89125C23.0035 6.92142 23.0014 6.95156 22.9979 6.98156L23.0035 6.87322C23.0035 6.92365 22.9995 6.97313 22.9917 7.02137C22.9881 7.04806 22.9826 7.07485 22.9758 7.1014C22.9716 7.11543 22.9677 7.1295 22.9635 7.14343C22.9561 7.16996 22.9467 7.19633 22.9362 7.22231C22.9296 7.23654 22.9237 7.25025 22.9173 7.26379C22.9082 7.28511 22.8973 7.30649 22.8854 7.3275C22.8739 7.34644 22.8625 7.36512 22.8504 7.38335C22.8419 7.3976 22.832 7.41163 22.8217 7.42544L22.8134 7.43533C22.7884 7.46791 22.7614 7.49878 22.7324 7.52775L22.7316 7.5294L17.6755 12.5621C17.3132 12.9228 16.7271 12.9214 16.3665 12.5591C16.0386 12.2297 16.0099 11.7154 16.2797 11.3537L16.3695 11.2501L19.8369 7.799L5.27103 7.79886C4.75982 7.79886 4.34539 7.38444 4.34539 6.87322ZM0.996363 19.1268L0.995849 19.1087C0.996429 19.0786 0.998474 19.0484 1.00198 19.0184L0.996363 19.1268C0.996363 19.0763 1.0004 19.0268 1.00815 18.9786C1.01176 18.9522 1.01721 18.9257 1.02383 18.8995C1.02836 18.8841 1.03277 18.8683 1.03759 18.8528C1.04444 18.8285 1.05277 18.8049 1.06208 18.7817C1.06955 18.7649 1.07698 18.7479 1.0849 18.7312C1.09349 18.7113 1.1036 18.6918 1.11446 18.6725C1.12462 18.656 1.13452 18.6397 1.14489 18.6237C1.15468 18.6072 1.16613 18.5907 1.17818 18.5745L1.2683 18.4706L6.32435 13.4379C6.68667 13.0772 7.27275 13.0786 7.6334 13.4409C7.96126 13.7703 7.98995 14.2846 7.72024 14.6463L7.63037 14.7499L4.16153 18.2019L18.7289 18.2011C19.2401 18.2011 19.6545 18.6155 19.6545 19.1268C19.6545 19.5954 19.3063 19.9827 18.8545 20.0439L18.7289 20.0524L4.16277 20.0532L7.63037 23.5033C7.95975 23.8312 7.99082 24.3453 7.72278 24.7083L7.6334 24.8124C7.30554 25.1417 6.79137 25.1728 6.42838 24.9048L6.32435 24.8154L1.26831 19.7827L1.21832 19.7282C1.20737 19.7154 1.19677 19.7023 1.18652 19.6889L1.26831 19.7827C1.22269 19.7373 1.18279 19.6883 1.14863 19.6366C1.1374 19.6186 1.12594 19.5999 1.11514 19.5807C1.10442 19.5629 1.09502 19.5449 1.08625 19.5266C1.07825 19.5085 1.07018 19.4901 1.06269 19.4715C1.05257 19.4478 1.044 19.4236 1.03647 19.399C1.03246 19.3841 1.02819 19.3688 1.0243 19.3534C1.01747 19.3285 1.01225 19.3034 1.00808 19.2781C1.00618 19.2629 1.00411 19.248 1.00239 19.233C0.998465 19.2044 0.996476 19.1751 0.995874 19.1457C0.996425 19.1393 0.996363 19.133 0.996363 19.1268Z" fill="#1CC8EE"/>
</svg>
