<svg width="24" height="24" viewBox="0 0 24 24" fill="none" xmlns="http://www.w3.org/2000/svg">
<path fill-rule="evenodd" clip-rule="evenodd" d="M15.4672 4C18.1784 4 20 5.9024 20 8.7328V15.2672C20 18.0976 18.1784 20 15.4664 20H8.532C5.8208 20 4 18.0976 4 15.2672V8.7328C4 5.9024 5.8208 4 8.532 4H15.4672ZM15.4672 5.2H8.532C6.508 5.2 5.2 6.5864 5.2 8.7328V15.2672C5.2 17.4136 6.508 18.8 8.532 18.8H15.4664C17.4912 18.8 18.8 17.4136 18.8 15.2672V8.7328C18.8 6.5864 17.492 5.2 15.4672 5.2ZM11.9993 7.90688C12.3305 7.90688 12.5993 8.17568 12.5993 8.50688V11.6557L15.0201 13.0981C15.3041 13.2685 15.3977 13.6365 15.2281 13.9213C15.1153 14.1093 14.9161 14.2141 14.7121 14.2141C14.6073 14.2141 14.5017 14.1869 14.4049 14.1301L11.6921 12.5117C11.5113 12.4029 11.3993 12.2069 11.3993 11.9965V8.50688C11.3993 8.17568 11.6681 7.90688 11.9993 7.90688Z" fill="#1CC8EE"/>
</svg>
