<svg width="24" height="24" viewBox="0 0 24 24" fill="none" xmlns="http://www.w3.org/2000/svg">
<path fill-rule="evenodd" clip-rule="evenodd" d="M5.01168 4.35886C5.01168 3.15471 5.98913 2.1774 7.19329 2.1774C8.39744 2.1774 9.37383 3.15471 9.37383 4.35886C9.37383 5.46591 8.54893 6.38015 7.48002 6.5207L7.85434 8.82378H12.9305C13.3126 8.81848 13.6682 9.01906 13.8606 9.34923C14.0531 9.67905 14.0531 10.0873 13.8606 10.4174C13.6682 10.7473 13.3126 10.9482 12.9305 10.9425H8.19757L8.30104 11.5792L14.9928 11.6212C15.4137 11.6237 15.7929 11.8748 15.9596 12.2615L18.2217 17.5152L20.0845 16.8521C20.6357 16.6557 21.2424 16.9428 21.4384 17.4941C21.6347 18.0453 21.3465 18.652 20.7953 18.8483L17.9968 19.8434C17.471 20.0306 16.8905 19.7777 16.669 19.2653L14.2865 13.7358L7.39174 13.6927C6.87477 13.6895 6.43548 13.3134 6.35249 12.8031L5.0371 4.69327C5.03687 4.6928 5.03695 4.69233 5.03702 4.69186C5.03706 4.69163 5.0371 4.69139 5.0371 4.69116C5.02121 4.58133 5.01097 4.47045 5.01168 4.35886ZM4.15188 10.977C4.35634 10.7415 4.65438 10.6076 4.96654 10.6119H4.96658C5.38397 10.6172 5.7597 10.8675 5.92531 11.251C6.09093 11.6345 6.01571 12.0795 5.73321 12.3874C5.50192 12.6469 5.30028 12.9333 5.13537 13.2416C4.8052 13.8578 4.61875 14.5581 4.61875 15.3095C4.61875 17.7468 6.57577 19.7038 9.01304 19.7038C10.2317 19.7038 11.3228 19.2126 12.1195 18.4159C12.5178 18.0176 12.8395 17.5437 13.0616 17.019C13.2036 16.662 13.5274 16.4095 13.9084 16.3593C14.2891 16.3096 14.6673 16.4695 14.8965 16.7774C15.1256 17.0857 15.1701 17.4939 15.013 17.8442C14.6828 18.6243 14.2068 19.3256 13.6181 19.9146C12.4405 21.0919 10.8048 21.8225 9.01304 21.8225C5.42949 21.8225 2.5 18.893 2.5 15.3095C2.5 14.2042 2.77855 13.1561 3.26805 12.2416C3.5128 11.7846 3.81006 11.3605 4.15188 10.977Z" fill="#1CC8EE"/>
</svg>
